<?xml version="1.0" encoding="UTF-8" standalone="no"?>
<!-- Created with Inkscape (http://www.inkscape.org/) -->

<svg
   xmlns:dc="http://purl.org/dc/elements/1.1/"
   xmlns:cc="http://creativecommons.org/ns#"
   xmlns:rdf="http://www.w3.org/1999/02/22-rdf-syntax-ns#"
   xmlns:svg="http://www.w3.org/2000/svg"
   xmlns="http://www.w3.org/2000/svg"
   xmlns:sodipodi="http://sodipodi.sourceforge.net/DTD/sodipodi-0.dtd"
   xmlns:inkscape="http://www.inkscape.org/namespaces/inkscape"
   id="svg2"
   version="1.1"
   inkscape:version="0.48.4 r9939"
   width="212.6"
   height="127.5625"
   xml:space="preserve"
   sodipodi:docname="Erasmus signature_01_full colour.eps"><metadata
     id="metadata8"><rdf:RDF><cc:Work
         rdf:about=""><dc:format>image/svg+xml</dc:format><dc:type
           rdf:resource="http://purl.org/dc/dcmitype/StillImage" /><dc:title></dc:title></cc:Work></rdf:RDF></metadata><defs
     id="defs6" /><sodipodi:namedview
     pagecolor="#ffffff"
     bordercolor="#666666"
     borderopacity="1"
     objecttolerance="10"
     gridtolerance="10"
     guidetolerance="10"
     inkscape:pageopacity="0"
     inkscape:pageshadow="2"
     inkscape:window-width="1176"
     inkscape:window-height="689"
     id="namedview4"
     showgrid="false"
     inkscape:zoom="4.9101892"
     inkscape:cx="99.240371"
     inkscape:cy="65.690478"
     inkscape:window-x="0"
     inkscape:window-y="24"
     inkscape:window-maximized="0"
     inkscape:current-layer="g10" /><g
     id="g10"
     inkscape:groupmode="layer"
     inkscape:label="ink_ext_XXXXXX"
     transform="matrix(1.25,0,0,-1.25,0,127.5625)"><g
       id="g12"
       transform="scale(0.1,0.1)"><path
         d="m 926.809,491.633 c -2.621,0 -3.235,1.004 -3.235,2.851 0,7.246 12.117,17.032 18.223,17.032 2.121,0 3.672,-0.977 3.672,-2.629 0,-2.696 -13.028,-17.254 -18.66,-17.254 z m 134.671,80.273 c -17.57,-48.84 -67.046,-80.613 -77.664,-80.613 -19.336,0 -1.66,38.102 -28.621,38.102 -18.164,0 -48.293,-19.344 -48.293,-39.696 0,-9.289 6.946,-18.652 21.653,-18.652 18.308,0 14.492,23.34 25.437,23.34 9.571,0 6.574,-17.746 29.621,-17.746 12.715,0 20.657,12.695 27.337,12.695 1.79,0 4.35,-1.055 4.35,-6.641 0,-9.226 -10.67,-38.222 -10.66,-45.777 0,-4.984 5.35,-8.5 9.33,-8.5 4.02,0 7.16,1.758 8.04,4.98 2.65,9.758 5.15,18.75 7.71,27.032 39.26,127.363 74.63,88.031 74.63,115.586 0,9.843 -8.09,13.39 -17.93,13.39 -10.96,0 -21.51,-8.371 -24.94,-17.5"
         style="fill:#052229;fill-opacity:1;fill-rule:evenodd;stroke:none"
         id="path14" /><path
         d="m 822.117,530.605 c -3.64,-2.597 3.071,-14.734 7.707,-12.605 4.258,1.961 20.188,11.133 28.789,11.133 4.114,0 6.035,-1.914 6.035,-4.348 0,-8.914 -48.21,-33.476 -48.21,-55.828 0,-5.363 4.91,-13.281 20.574,-13.281 24.551,0 53.73,11.445 53.73,21.074 0,1.609 -1.965,3.594 -4.363,3.594 -3.82,0 -28.313,-10.117 -41.469,-10.117 -4.234,0 -7.605,1.726 -7.605,4.648 0,13.594 46.047,34.707 46.047,50.703 0,14.188 -13.047,18.36 -20.903,18.36 -18.308,0 -36.797,-10.813 -40.332,-13.333"
         style="fill:#052229;fill-opacity:1;fill-rule:evenodd;stroke:none"
         id="path16" /><path
         d="m 1303.13,513.313 c -3.84,-14.532 -31.21,-18.665 -46.15,-18.665 -14.95,0 -14.75,4.153 -17.94,19.356 -3,14.375 -9.01,17.949 -16.98,17.949 -5.87,0 -11.75,-5.633 -18.33,-11.726 -11.4,-10.567 -22.55,-24.922 -28.61,-24.922 -5.15,0 -9.12,5.996 -9.12,12.019 0,5.489 4.29,7.766 4.29,13.887 0,4.269 -2.36,12.648 -8.65,12.648 -9.5,0 -24.46,-16.543 -27.1,-19.179 -7.78,-7.785 -18.59,-23.274 -29.74,-23.274 -16.63,0 -1.47,25.996 -21.39,25.996 -10.34,0 -14.55,-9.492 -14.55,-14.062 0,-7.871 5.1,-12.156 10.72,-18.203 6.34,-6.824 11.19,-12.703 19.85,-12.703 25.91,0 31.69,28.437 45.05,28.437 4.43,0 6.46,-4.043 6.93,-7.891 1.18,-9.679 11.55,-14.257 23.55,-14.257 22.73,0 23.2,20.117 37.27,20.117 19.14,0 15.61,-22.629 36.89,-22.629 8.48,0 9.84,1.426 22.68,3.117 15.59,2.051 28.7,2.996 35.8,7.246 16,9.59 7.61,38.008 24.27,38.008 5.69,0 10.02,-3.848 10.02,-13.234 0,-11.629 -4.08,-38.7 -61.93,-68.36 -5.93,-3.164 -10.02,-7.039 -10.02,-10.429 0,-3.516 3.6,-5.477 7,-5.477 13.04,0 83.69,38.164 83.69,81.648 0,25.032 -10.95,32.668 -26.96,32.668 -25.57,0 -27.03,-14.875 -30.54,-28.085"
         style="fill:#052229;fill-opacity:1;fill-rule:evenodd;stroke:none"
         id="path18" /><path
         d="m 805.203,680.324 c -43.34,0 -123.515,-28.566 -208.238,-150.117 -57.805,-16.367 -256.809,-77.93 -256.809,-123.613 0,-9.348 14.082,-22.551 34.387,-22.551 9.695,0 17.098,3.645 17.098,9.062 0,10.567 -25.286,10 -25.286,17.532 0,20.418 116.133,64.597 216.34,94.578 -38.547,-73.535 -17.09,-165.047 73.828,-165.047 43.172,0 86.231,26.387 112.579,42.402 5.109,3.106 1.211,10.868 -4.786,7.766 -27.136,-14.055 -62.187,-31.801 -99.238,-31.801 -97.683,0 -86.609,97.063 -53.43,155.11 28.926,8.035 72.524,18.566 118.207,18.566 33.934,0 42.872,-12.875 49.461,-15.102 6.614,-2.136 11.075,3.176 6.856,8.957 -6.738,9.239 -19.246,25.028 -64.395,25.028 -19.406,0.215 -58.047,-4.696 -95.714,-13.387 41.476,55.77 109.14,124.609 182.394,124.609 20.813,0 48.731,-7.343 48.731,2.625 0,13.274 -40.665,15.395 -51.985,15.383"
         style="fill:#052229;fill-opacity:1;fill-rule:evenodd;stroke:none"
         id="path20" /></g></g></svg>